<svg width="2132" height="1473" viewBox="0 0 2132 1473" fill="none" xmlns="http://www.w3.org/2000/svg">
<path d="M628.457 1222.67C598.028 1222.67 568.09 1218.74 538.643 1210.89C509.195 1204.02 477.785 1191.26 444.411 1172.61C440.485 1169.66 438.031 1166.23 437.049 1162.3C436.068 1157.39 435.577 1151.5 435.577 1144.63L450.301 953.226C450.301 948.318 452.755 945.864 457.663 945.864C463.552 945.864 466.497 948.318 466.497 953.226C464.534 992.489 469.441 1031.26 481.22 1069.54C492.999 1107.82 513.612 1139.73 543.06 1165.25C573.488 1189.79 613.733 1202.06 663.793 1202.06C693.241 1202.06 722.197 1196.66 750.663 1185.86C779.129 1174.08 804.159 1155.43 825.753 1129.91C848.33 1104.39 863.544 1069.54 871.397 1025.37C880.231 978.256 877.286 938.993 862.563 907.583C848.82 875.191 827.717 847.216 799.251 823.658C771.767 800.1 742.32 778.015 710.909 757.401C680.48 736.788 652.015 715.194 625.512 692.617C599.009 670.041 578.396 643.539 563.673 613.11C549.931 581.699 546.986 542.927 554.839 496.793C564.654 445.751 584.286 403.543 613.733 370.17C644.162 335.815 679.989 310.294 721.216 293.607C762.442 276.92 804.159 268.577 846.367 268.577C869.924 268.577 894.464 271.521 919.985 277.411C946.487 282.319 973.481 291.153 1000.96 303.913C1013.73 310.784 1019.61 319.128 1018.63 328.944L1000.96 485.014C1000.96 488.94 998.02 490.904 992.131 490.904C986.241 490.904 983.296 488.94 983.296 485.014C983.296 456.548 979.37 427.101 971.517 396.672C963.665 366.243 948.45 340.722 925.874 320.109C904.28 298.515 870.906 287.717 825.753 287.717C785.509 287.717 752.135 296.552 725.633 314.22C699.13 331.888 678.026 353.974 662.321 380.476C647.597 406.979 637.782 434.463 632.874 462.929C625.021 504.155 627.966 539.492 641.708 568.939C656.432 597.405 677.045 622.435 703.547 644.029C731.031 665.624 759.988 686.728 790.417 707.341C822.809 727.954 853.238 750.04 881.703 773.597C910.169 796.174 931.764 823.658 946.487 856.05C962.192 887.46 966.119 926.723 958.266 973.839C950.414 1018.99 932.254 1060.71 903.789 1098.99C876.305 1136.29 839.495 1166.23 793.361 1188.8C747.227 1211.38 692.259 1222.67 628.457 1222.67ZM1056.86 1205C1053.91 1205 1052.44 1202.06 1052.44 1196.17C1052.44 1190.28 1053.91 1187.33 1056.86 1187.33C1088.27 1187.33 1112.32 1184.88 1129 1179.97C1146.67 1175.06 1159.43 1165.25 1167.28 1150.52C1176.12 1135.8 1182.99 1114.2 1187.9 1085.74L1307.16 404.034C1315.01 361.826 1313.54 334.342 1302.74 321.582C1291.94 308.821 1262.5 302.441 1214.4 302.441C1212.44 302.441 1211.46 299.496 1211.46 293.607C1211.46 287.717 1212.44 284.773 1214.4 284.773C1234.03 284.773 1255.63 285.754 1279.18 287.717C1303.72 288.699 1329.74 289.19 1357.22 289.19C1379.8 289.19 1406.79 287.717 1438.2 284.773C1469.61 281.828 1503.47 280.356 1539.79 280.356C1588.87 280.356 1633.04 289.681 1672.3 308.33C1711.57 325.999 1741.02 353.974 1760.65 392.255C1781.26 429.555 1785.68 478.143 1773.9 538.019C1765.06 587.098 1747.4 629.797 1720.89 666.115C1695.37 701.452 1664.94 730.408 1629.61 752.984C1594.27 775.561 1557.46 792.247 1519.18 803.045C1480.9 813.842 1445.07 819.241 1411.7 819.241C1399.92 819.241 1389.12 818.75 1379.3 817.768C1370.47 816.787 1361.15 814.824 1351.33 811.879C1348.38 810.897 1347.89 807.462 1349.86 801.572C1351.82 794.701 1354.27 791.757 1357.22 792.738C1365.07 794.701 1372.43 796.174 1379.3 797.155C1387.16 798.137 1394.52 798.628 1401.39 798.628C1440.65 798.628 1479.92 790.284 1519.18 773.597C1559.42 756.911 1594.76 731.88 1625.19 698.507C1656.6 664.152 1677.21 620.472 1687.03 567.466C1697.83 510.535 1695.86 462.438 1681.14 423.175C1666.42 382.93 1643.35 352.501 1611.94 331.888C1580.53 310.294 1545.68 299.496 1507.4 299.496C1475.99 299.496 1451.94 301.459 1435.25 305.386C1418.57 308.33 1405.81 317.165 1396.97 331.888C1389.12 346.612 1381.76 371.642 1374.89 406.979L1255.63 1085.74C1248.76 1127.95 1250.72 1155.43 1261.52 1168.19C1272.31 1180.95 1301.76 1187.33 1349.86 1187.33C1351.82 1187.33 1352.8 1190.28 1352.8 1196.17C1352.8 1202.06 1351.82 1205 1349.86 1205C1330.23 1205 1307.65 1204.51 1282.13 1203.53C1256.61 1202.55 1229.12 1202.06 1199.68 1202.06C1173.17 1202.06 1147.16 1202.55 1121.64 1203.53C1097.1 1204.51 1075.51 1205 1056.86 1205Z" fill="#C8741A" fill-opacity="0.08"/>
<path d="M445.71 690.265C445.71 697.136 447.346 703.026 450.618 707.934C454.053 712.678 458.389 716.85 463.624 720.449C469.022 724.048 474.666 727.565 480.556 731.001C486.609 734.436 492.417 738.117 497.979 742.043C503.541 745.806 508.122 750.387 511.721 755.785C515.484 761.021 517.365 767.564 517.365 775.417C517.365 782.942 515.484 789.895 511.721 796.275C508.122 802.492 502.641 807.482 495.28 811.245C487.918 815.007 478.675 816.889 467.55 816.889C463.951 816.889 460.352 816.643 456.753 816.152C453.317 815.662 449.718 814.844 445.955 813.698C442.356 812.39 438.43 810.672 434.176 808.545C433.358 808.054 432.786 807.482 432.459 806.827C432.295 806.009 432.131 805.028 431.968 803.883L428.287 771.981C428.123 771.163 428.451 770.755 429.269 770.755C430.25 770.591 430.823 770.836 430.986 771.491C431.641 776.399 432.949 781.306 434.913 786.214C436.876 791.122 439.493 795.621 442.765 799.711C446.201 803.801 450.372 807.155 455.28 809.772C460.352 812.226 466.241 813.453 472.949 813.453C478.02 813.453 482.928 812.553 487.672 810.754C492.417 808.791 496.261 805.682 499.206 801.429C502.314 797.175 503.868 791.368 503.868 784.006C503.868 775.99 502.069 769.364 498.47 764.129C495.034 758.73 490.617 754.15 485.218 750.387C479.82 746.461 474.094 742.78 468.041 739.344C462.315 735.909 456.753 732.309 451.354 728.547C445.955 724.784 441.538 720.367 438.103 715.295C434.831 710.06 433.195 703.598 433.195 695.909C433.195 687.402 435.322 680.368 439.575 674.805C443.829 669.08 449.309 664.826 456.016 662.045C462.888 659.264 470.004 657.873 477.366 657.873C481.619 657.873 486.036 658.364 490.617 659.346C495.361 660.164 500.269 661.636 505.341 663.763C506.649 664.254 507.549 664.908 508.04 665.726C508.694 666.38 509.022 667.116 509.022 667.934L511.23 693.946C511.23 694.601 510.739 694.928 509.758 694.928C508.94 694.928 508.449 694.601 508.285 693.946C507.958 690.347 507.058 686.666 505.586 682.903C504.277 678.977 502.232 675.378 499.451 672.106C496.834 668.834 493.398 666.217 489.145 664.254C485.055 662.127 480.065 661.063 474.176 661.063C467.141 661.063 461.497 662.536 457.243 665.481C453.154 668.425 450.209 672.106 448.409 676.523C446.61 680.94 445.71 685.521 445.71 690.265ZM607.756 815.416C607.102 815.743 606.447 815.907 605.793 815.907C603.83 815.907 602.03 814.189 600.394 810.754C598.758 807.318 597.94 802.329 597.94 795.785V748.424C597.94 738.281 596.305 731.246 593.033 727.32C589.924 723.393 585.998 721.43 581.254 721.43C577.164 721.43 573.728 722.412 570.947 724.375C568.33 726.175 566.285 728.465 564.812 731.246C563.504 734.027 562.522 736.645 561.868 739.099C561.54 740.735 560.968 742.698 560.15 744.988C559.332 747.115 557.287 748.178 554.015 748.178C551.561 748.178 549.68 747.442 548.371 745.97C547.226 744.497 546.653 742.943 546.653 741.307C546.653 738.526 548.125 735.745 551.07 732.964C554.015 730.019 557.696 727.32 562.113 724.866C566.694 722.412 571.438 720.449 576.346 718.976C581.254 717.504 585.753 716.768 589.842 716.768C596.55 716.768 601.458 718.976 604.566 723.393C607.674 727.647 609.229 733.536 609.229 741.062V787.441C609.229 793.331 609.883 797.666 611.192 800.447C612.664 803.065 615.118 804.373 618.554 804.373C621.662 804.373 626.161 803.147 632.05 800.693C632.868 800.365 633.441 800.693 633.768 801.674C634.095 802.492 633.85 803.065 633.032 803.392L607.756 815.416ZM564.322 815.662C558.268 815.662 553.606 814.026 550.334 810.754C547.226 807.318 545.672 803.392 545.672 798.975C545.672 796.194 546.326 793.494 547.635 790.877C549.107 788.259 551.561 785.724 554.997 783.27C558.596 780.816 563.504 778.444 569.72 776.153L600.394 764.62L600.885 767.81L571.929 778.853C568.493 780.161 565.876 781.634 564.076 783.27C562.277 784.742 561.05 786.378 560.395 788.177C559.741 789.813 559.414 791.531 559.414 793.331C559.414 796.93 560.559 800.202 562.849 803.147C565.303 806.091 568.82 807.564 573.401 807.564C575.201 807.564 577.082 807.318 579.045 806.827C581.008 806.173 583.38 805.028 586.162 803.392L602.603 793.822L603.094 796.766L584.689 808.3C580.599 810.917 577 812.799 573.892 813.944C570.784 815.089 567.593 815.662 564.322 815.662ZM694.858 817.134C688.641 817.134 682.506 816.152 676.453 814.189C670.4 812.226 664.429 808.791 658.539 803.883L669.091 783.76C669.091 790.795 670.973 796.439 674.735 800.693C678.662 804.946 683.242 807.973 688.477 809.772C693.876 811.572 698.702 812.471 702.956 812.471C713.099 812.471 721.033 808.791 726.759 801.429C732.485 794.067 735.348 783.351 735.348 769.282C735.348 754.068 732.239 742.534 726.023 734.682C719.806 726.829 712.035 722.903 702.71 722.903C695.512 722.903 688.886 725.275 682.833 730.019C676.944 734.6 671.382 739.835 666.147 745.724L664.183 744.007C667.619 740.08 671.545 735.99 675.962 731.737C680.379 727.32 685.369 723.639 690.931 720.694C696.657 717.586 703.037 716.032 710.072 716.032C716.943 716.032 723.323 717.749 729.213 721.185C735.102 724.457 739.847 729.447 743.446 736.154C747.208 742.861 749.09 751.287 749.09 761.43C749.09 773.863 746.39 784.251 740.992 792.595C735.757 800.774 728.967 806.909 720.624 810.999C712.281 815.089 703.692 817.134 694.858 817.134ZM644.061 814.925C643.407 815.089 642.916 814.844 642.589 814.189C642.262 813.535 642.343 812.962 642.834 812.471C647.742 809.036 651.423 805.846 653.877 802.901C656.331 799.956 657.558 795.212 657.558 788.668V666.953C657.558 661.063 656.985 656.81 655.84 654.192C654.695 651.411 652.568 650.021 649.46 650.021C646.679 650.021 642.752 651.166 637.681 653.456C637.026 653.783 636.536 653.456 636.209 652.475C635.881 651.493 636.045 650.92 636.699 650.757L666.147 636.279C666.637 636.115 667.046 636.033 667.374 636.033C667.701 636.033 668.028 636.197 668.355 636.524C668.846 636.851 669.091 637.26 669.091 637.751V803.147L644.061 814.925ZM768.43 813.944C767.939 813.944 767.694 813.453 767.694 812.471C767.694 811.49 767.939 810.999 768.43 810.999C775.137 810.999 779.473 809.936 781.436 807.809C783.399 805.682 784.38 801.102 784.38 794.067V666.707C784.38 660.818 783.808 656.565 782.663 653.947C781.518 651.166 779.473 649.775 776.528 649.775C773.91 649.775 769.984 651.002 764.749 653.456C764.095 653.783 763.522 653.456 763.031 652.475C762.704 651.493 762.868 650.92 763.522 650.757L793.705 636.279C794.033 636.115 794.442 636.033 794.932 636.033C795.26 636.033 795.587 636.197 795.914 636.524C796.405 636.851 796.65 637.26 796.65 637.751V794.067C796.65 800.938 797.55 805.519 799.349 807.809C801.313 809.936 805.73 810.999 812.601 810.999C813.092 810.999 813.337 811.49 813.337 812.471C813.337 813.453 813.092 813.944 812.601 813.944C809.82 813.944 806.466 813.862 802.54 813.698C798.777 813.535 794.769 813.453 790.515 813.453C786.425 813.453 782.417 813.535 778.491 813.698C774.565 813.862 771.211 813.944 768.43 813.944ZM873.915 816.889C864.263 816.889 856.165 814.68 849.621 810.263C843.24 805.682 838.414 799.793 835.142 792.595C831.871 785.396 830.235 777.789 830.235 769.773C830.235 759.794 832.525 750.878 837.106 743.025C841.686 735.009 847.821 728.71 855.51 724.13C863.363 719.385 871.87 717.013 881.031 717.013C890.356 717.013 897.309 719.549 901.89 724.62C906.47 729.692 908.761 736.481 908.761 744.988C908.761 747.115 908.515 748.669 908.024 749.651C907.697 750.632 906.961 751.123 905.816 751.123H894.282C895.1 740.98 893.464 733.618 889.375 729.038C885.448 724.293 880.05 721.921 873.179 721.921C864.017 721.921 856.901 725.438 851.829 732.473C846.758 739.344 844.222 748.833 844.222 760.939C844.222 770.1 845.694 778.362 848.639 785.724C851.584 792.922 855.919 798.648 861.645 802.901C867.371 806.991 874.324 809.036 882.504 809.036C888.229 809.036 892.892 808.218 896.491 806.582C900.254 804.782 903.853 802.819 907.288 800.693C907.616 800.365 908.024 800.611 908.515 801.429C909.17 802.083 909.333 802.656 909.006 803.147C903.28 808.054 897.473 811.572 891.583 813.698C885.857 815.825 879.968 816.889 873.915 816.889ZM841.032 751.368L840.787 748.424L896.736 747.442V751.123L841.032 751.368ZM981.066 813.944C980.575 813.944 980.329 813.453 980.329 812.471C980.329 811.49 980.575 810.999 981.066 810.999C986.301 810.999 990.309 810.59 993.09 809.772C996.035 808.954 998.161 807.318 999.47 804.864C1000.94 802.41 1002.09 798.811 1002.91 794.067L1022.78 680.45C1024.09 673.415 1023.85 668.834 1022.05 666.707C1020.25 664.581 1015.34 663.517 1007.32 663.517C1007 663.517 1006.83 663.027 1006.83 662.045C1006.83 661.063 1007 660.573 1007.32 660.573C1010.59 660.573 1014.19 660.736 1018.12 661.063C1022.21 661.227 1026.55 661.309 1031.13 661.309C1034.89 661.309 1039.39 661.063 1044.62 660.573C1049.86 660.082 1055.5 659.836 1061.55 659.836C1069.73 659.836 1077.1 661.391 1083.64 664.499C1090.18 667.444 1095.09 672.106 1098.36 678.486C1101.8 684.703 1102.54 692.801 1100.57 702.78C1099.1 710.96 1096.16 718.077 1091.74 724.13C1087.48 730.019 1082.41 734.845 1076.52 738.608C1070.63 742.371 1064.5 745.152 1058.12 746.951C1051.74 748.751 1045.77 749.651 1040.21 749.651C1038.24 749.651 1036.44 749.569 1034.81 749.405C1033.33 749.242 1031.78 748.914 1030.14 748.424C1029.65 748.26 1029.57 747.687 1029.9 746.706C1030.23 745.561 1030.64 745.07 1031.13 745.234C1032.43 745.561 1033.66 745.806 1034.81 745.97C1036.12 746.133 1037.34 746.215 1038.49 746.215C1045.03 746.215 1051.58 744.825 1058.12 742.043C1064.83 739.262 1070.72 735.091 1075.79 729.528C1081.02 723.802 1084.46 716.522 1086.09 707.688C1087.89 698.2 1087.57 690.183 1085.11 683.64C1082.66 676.932 1078.81 671.861 1073.58 668.425C1068.34 664.826 1062.54 663.027 1056.16 663.027C1050.92 663.027 1046.91 663.354 1044.13 664.008C1041.35 664.499 1039.22 665.971 1037.75 668.425C1036.44 670.879 1035.22 675.051 1034.07 680.94L1014.19 794.067C1013.05 801.102 1013.38 805.682 1015.18 807.809C1016.97 809.936 1021.88 810.999 1029.9 810.999C1030.23 810.999 1030.39 811.49 1030.39 812.471C1030.39 813.453 1030.23 813.944 1029.9 813.944C1026.63 813.944 1022.86 813.862 1018.61 813.698C1014.36 813.535 1009.78 813.453 1004.87 813.453C1000.45 813.453 996.116 813.535 991.863 813.698C987.773 813.862 984.174 813.944 981.066 813.944ZM1125.63 812.471L1123.17 812.226C1124.48 805.191 1126.36 797.421 1128.82 788.914C1131.27 780.407 1134.13 771.981 1137.4 763.638C1140.68 755.131 1144.11 747.36 1147.71 740.326C1151.47 733.291 1155.24 727.647 1159 723.393C1162.93 719.14 1166.69 717.013 1170.29 717.013C1172.41 717.013 1174.46 717.586 1176.42 718.731C1178.55 719.876 1180.18 721.43 1181.33 723.393C1182.64 725.357 1183.05 727.483 1182.56 729.774C1182.07 731.9 1181.17 733.455 1179.86 734.436C1178.71 735.254 1177.24 735.663 1175.44 735.663C1172.99 735.663 1171.19 735.009 1170.04 733.7C1169.06 732.228 1168.16 730.837 1167.34 729.528C1166.69 728.056 1165.54 727.32 1163.91 727.32C1161.45 727.32 1158.75 729.283 1155.81 733.209C1153.03 737.136 1150.08 742.289 1146.97 748.669C1143.87 755.049 1140.92 762.084 1138.14 769.773C1135.36 777.298 1132.82 784.824 1130.53 792.349C1128.41 799.875 1126.77 806.582 1125.63 812.471ZM1119.49 815.907C1117.36 815.907 1115.97 815.743 1115.32 815.416C1114.83 815.253 1114.58 814.925 1114.58 814.435C1114.58 813.944 1114.99 811.654 1115.81 807.564C1116.79 803.31 1117.61 799.384 1118.26 795.785L1125.87 752.841C1127.34 745.315 1127.92 739.671 1127.59 735.909C1127.26 732.146 1126.44 729.61 1125.13 728.301C1123.99 726.829 1122.68 726.093 1121.21 726.093C1118.75 726.093 1116.14 727.074 1113.36 729.038C1110.74 731.001 1108.37 732.964 1106.24 734.927C1105.91 735.254 1105.42 735.172 1104.77 734.682C1104.11 734.027 1103.95 733.455 1104.28 732.964C1108.86 727.729 1113.19 723.802 1117.28 721.185C1121.54 718.404 1125.71 717.013 1129.8 717.013C1132.58 717.013 1134.71 717.995 1136.18 719.958C1137.81 721.921 1138.71 725.52 1138.88 730.755C1139.04 735.827 1138.22 743.189 1136.42 752.841L1125.63 812.471C1125.3 814.762 1123.25 815.907 1119.49 815.907ZM1196.18 817.134C1190.94 817.134 1186.93 815.171 1184.15 811.245C1181.53 807.318 1180.8 800.774 1181.94 791.613C1183.25 782.615 1186.03 773.699 1190.29 764.865C1194.7 755.867 1199.94 747.687 1205.99 740.326C1212.21 732.964 1218.75 727.074 1225.62 722.657C1232.66 718.24 1239.37 716.032 1245.75 716.032C1248.69 716.032 1251.55 716.604 1254.33 717.749C1257.12 718.731 1259.49 720.449 1261.45 722.903C1263.41 725.357 1264.56 728.547 1264.89 732.473L1255.56 726.338C1257.36 726.011 1259.57 724.702 1262.19 722.412C1264.8 719.958 1266.36 717.177 1266.85 714.069C1267.18 713.578 1267.75 713.414 1268.57 713.578C1269.55 713.741 1269.96 713.987 1269.79 714.314L1255.56 792.104C1253.93 802.083 1255.23 807.073 1259.49 807.073C1261.45 807.073 1263.91 806.009 1266.85 803.883C1269.79 801.592 1273.07 798.648 1276.67 795.049C1277.16 794.558 1277.73 794.64 1278.38 795.294C1279.04 795.948 1279.12 796.521 1278.63 797.012C1273.23 803.065 1268.32 807.809 1263.91 811.245C1259.65 814.516 1255.4 816.152 1251.14 816.152C1247.38 816.152 1245.01 814.435 1244.03 810.999C1243.21 807.4 1243.62 801.102 1245.26 792.104L1251.14 757.749L1255.07 753.577C1250 765.683 1244.11 776.562 1237.4 786.214C1230.86 795.866 1223.99 803.474 1216.79 809.036C1209.75 814.435 1202.88 817.134 1196.18 817.134ZM1203.29 806.582C1208.04 806.582 1212.95 804.782 1218.02 801.183C1223.25 797.421 1228.24 792.513 1232.99 786.46C1237.89 780.407 1242.15 773.699 1245.75 766.337C1249.35 758.976 1251.88 751.696 1253.35 744.497C1254.66 738.771 1254.01 733.864 1251.39 729.774C1248.94 725.684 1244.52 723.721 1238.14 723.884C1232.25 724.048 1226.11 726.747 1219.73 731.982C1213.52 737.217 1207.96 744.252 1203.05 753.086C1198.3 761.757 1195.11 771.654 1193.48 782.779C1192.33 790.468 1192.5 796.357 1193.97 800.447C1195.44 804.537 1198.55 806.582 1203.29 806.582ZM1307.99 817.134C1304.06 817.134 1300.38 816.071 1296.95 813.944C1293.67 811.654 1291.22 808.054 1289.58 803.147C1288.11 798.075 1288.03 791.368 1289.34 783.024C1290.97 773.863 1293.92 765.274 1298.17 757.258C1302.43 749.242 1307.58 742.125 1313.63 735.909C1319.85 729.692 1326.47 724.866 1333.51 721.43C1340.54 717.831 1347.66 716.032 1354.86 716.032C1359.28 716.032 1363.37 717.34 1367.13 719.958C1371.05 722.412 1373.34 726.584 1374 732.473L1364.18 753.577C1359.11 765.847 1353.55 776.808 1347.5 786.46C1341.61 795.948 1335.31 803.474 1328.6 809.036C1322.06 814.435 1315.19 817.134 1307.99 817.134ZM1314.86 806.582C1320.42 806.582 1325.82 804.373 1331.05 799.956C1336.45 795.539 1341.28 789.977 1345.53 783.27C1349.95 776.562 1353.63 769.691 1356.58 762.657C1359.52 755.622 1361.48 749.569 1362.47 744.497C1363.77 737.79 1363.04 732.637 1360.26 729.038C1357.48 725.438 1353.14 723.721 1347.25 723.884C1336.29 724.048 1326.47 728.383 1317.8 736.89C1309.3 745.397 1303.65 757.749 1300.87 773.945C1299.07 784.906 1299.56 793.085 1302.34 798.484C1305.12 803.883 1309.3 806.582 1314.86 806.582ZM1359.77 816.152C1355.84 816.152 1353.39 814.435 1352.4 810.999C1351.59 807.4 1352 801.102 1353.63 792.104L1378.66 660.082C1379.64 654.847 1378.82 651.493 1376.21 650.021C1373.75 648.548 1368.68 649.693 1360.99 653.456C1360.34 653.783 1359.85 653.456 1359.52 652.475C1359.19 651.493 1359.36 650.92 1360.01 650.757L1390.19 636.033C1390.69 635.706 1391.26 635.87 1391.91 636.524C1392.57 637.178 1392.81 637.669 1392.65 637.996L1363.94 792.104C1362.96 797.175 1362.87 800.938 1363.69 803.392C1364.67 805.846 1366.23 807.073 1368.35 807.073C1370.15 807.073 1372.53 806.009 1375.47 803.883C1378.42 801.592 1381.69 798.648 1385.29 795.049C1385.78 794.394 1386.35 794.394 1387 795.049C1387.82 795.703 1387.9 796.357 1387.25 797.012C1381.69 803.065 1376.78 807.809 1372.53 811.245C1368.27 814.516 1364.02 816.152 1359.77 816.152ZM1406.72 815.907C1404.6 815.907 1403.21 815.743 1402.55 815.416C1401.9 815.253 1401.57 814.925 1401.57 814.435C1401.57 813.944 1401.98 811.817 1402.8 808.054C1403.78 804.128 1404.6 800.038 1405.25 795.785L1430.77 660.082C1431.92 654.847 1431.18 651.493 1428.56 650.021C1426.11 648.548 1421.04 649.693 1413.35 653.456C1412.7 653.783 1412.12 653.456 1411.63 652.475C1411.31 651.493 1411.47 650.92 1412.12 650.757L1442.31 636.033C1442.96 635.706 1443.62 635.87 1444.27 636.524C1444.92 637.178 1445.17 637.669 1445.01 637.996L1413.1 812.471C1412.78 814.762 1410.65 815.907 1406.72 815.907ZM1468.81 816.152C1464.88 816.152 1462.43 814.435 1461.45 810.999C1460.63 807.4 1461.04 801.102 1462.67 792.104L1469.79 753.086C1471.59 743.434 1471.75 736.236 1470.28 731.491C1468.81 726.747 1465.46 724.375 1460.22 724.375C1454.82 724.375 1449.1 727.811 1443.04 734.682C1437.15 741.553 1431.51 751.614 1426.11 764.865C1420.88 777.953 1416.54 793.822 1413.1 812.471L1410.41 812.226C1413.84 793.249 1418.42 776.562 1424.15 762.166C1430.04 747.606 1436.66 736.318 1444.02 728.301C1451.39 720.122 1459.08 716.032 1467.09 716.032C1474.13 716.032 1478.71 718.567 1480.83 723.639C1482.96 728.547 1483.04 736.808 1481.08 748.424L1472.98 792.104C1472.16 797.175 1472.08 800.938 1472.74 803.392C1473.55 805.846 1475.03 807.073 1477.15 807.073C1479.12 807.073 1481.57 806.009 1484.51 803.883C1487.46 801.592 1490.73 798.648 1494.33 795.049C1494.98 794.394 1495.64 794.394 1496.29 795.049C1496.95 795.703 1496.95 796.357 1496.29 797.012C1490.89 803.065 1485.99 807.809 1481.57 811.245C1477.32 814.516 1473.06 816.152 1468.81 816.152ZM1519.69 817.134C1514.46 817.134 1510.45 815.171 1507.67 811.245C1505.05 807.318 1504.32 800.774 1505.46 791.613C1506.77 782.615 1509.55 773.699 1513.8 764.865C1518.22 755.867 1523.46 747.687 1529.51 740.326C1535.73 732.964 1542.27 727.074 1549.14 722.657C1556.18 718.24 1562.88 716.032 1569.26 716.032C1572.21 716.032 1575.07 716.604 1577.85 717.749C1580.63 718.731 1583.01 720.449 1584.97 722.903C1586.93 725.357 1588.08 728.547 1588.4 732.473L1579.08 726.338C1580.88 726.011 1583.09 724.702 1585.7 722.412C1588.32 719.958 1589.88 717.177 1590.37 714.069C1590.69 713.578 1591.27 713.414 1592.08 713.578C1593.07 713.741 1593.48 713.987 1593.31 714.314L1579.08 792.104C1577.44 802.083 1578.75 807.073 1583.01 807.073C1584.97 807.073 1587.42 806.009 1590.37 803.883C1593.31 801.592 1596.58 798.648 1600.18 795.049C1600.67 794.558 1601.25 794.64 1601.9 795.294C1602.56 795.948 1602.64 796.521 1602.15 797.012C1596.75 803.065 1591.84 807.809 1587.42 811.245C1583.17 814.516 1578.92 816.152 1574.66 816.152C1570.9 816.152 1568.53 814.435 1567.55 810.999C1566.73 807.4 1567.14 801.102 1568.77 792.104L1574.66 757.749L1578.59 753.577C1573.52 765.683 1567.63 776.562 1560.92 786.214C1554.38 795.866 1547.51 803.474 1540.31 809.036C1533.27 814.435 1526.4 817.134 1519.69 817.134ZM1526.81 806.582C1531.55 806.582 1536.46 804.782 1541.53 801.183C1546.77 797.421 1551.76 792.513 1556.5 786.46C1561.41 780.407 1565.66 773.699 1569.26 766.337C1572.86 758.976 1575.4 751.696 1576.87 744.497C1578.18 738.771 1577.52 733.864 1574.91 729.774C1572.45 725.684 1568.04 723.721 1561.66 723.884C1555.77 724.048 1549.63 726.747 1543.25 731.982C1537.03 737.217 1531.47 744.252 1526.56 753.086C1521.82 761.757 1518.63 771.654 1516.99 782.779C1515.85 790.468 1516.01 796.357 1517.49 800.447C1518.96 804.537 1522.07 806.582 1526.81 806.582ZM1688.44 816.152C1684.51 816.152 1682.06 814.435 1681.07 810.999C1680.26 807.4 1680.67 801.102 1682.3 792.104L1689.42 753.086C1693.34 733.945 1690.15 724.375 1679.85 724.375C1674.45 724.375 1668.72 727.811 1662.67 734.682C1656.78 741.553 1651.14 751.614 1645.74 764.865C1640.5 777.953 1636.17 793.822 1632.73 812.471L1630.03 812.226C1633.47 793.249 1638.05 776.562 1643.77 762.166C1649.5 747.606 1656.04 736.318 1663.41 728.301C1670.93 720.122 1678.7 716.032 1686.72 716.032C1693.75 716.032 1698.42 718.567 1700.71 723.639C1703 728.547 1703 736.808 1700.71 748.424L1692.61 792.104C1691.79 797.175 1691.79 800.938 1692.61 803.392C1693.43 805.846 1694.9 807.073 1697.03 807.073C1698.82 807.073 1701.2 806.009 1704.14 803.883C1707.09 801.592 1710.36 798.648 1713.96 795.049C1714.45 794.394 1715.02 794.394 1715.68 795.049C1716.49 795.703 1716.58 796.357 1715.92 797.012C1710.52 803.065 1705.61 807.809 1701.2 811.245C1696.94 814.516 1692.69 816.152 1688.44 816.152ZM1626.35 815.907C1624.23 815.907 1622.83 815.743 1622.18 815.416C1621.53 815.253 1621.2 814.925 1621.2 814.435C1621.2 813.944 1621.61 811.817 1622.43 808.054C1623.41 804.128 1624.23 800.038 1624.88 795.785L1634.94 741.062C1636.58 731.082 1635.19 726.093 1630.77 726.093C1628.81 726.093 1626.27 727.074 1623.16 729.038C1620.05 731.001 1616.7 733.864 1613.1 737.626C1612.61 738.281 1611.96 738.281 1611.14 737.626C1610.48 736.808 1610.48 736.154 1611.14 735.663C1616.54 729.447 1621.53 724.784 1626.11 721.676C1630.85 718.567 1635.27 717.013 1639.36 717.013C1643.12 717.013 1645.41 718.813 1646.23 722.412C1647.21 725.847 1646.88 732.064 1645.25 741.062L1632.73 812.471C1632.41 814.762 1630.28 815.907 1626.35 815.907Z" fill="#DE9726"/>
<path d="M95.6938 1068.04V990.736H109.387L134.123 1049.26H134.564L159.19 990.736H172.882V1068.04H163.607V1004.76H163.165L140.859 1056.99H127.828L105.411 1004.76H104.97V1068.04H95.6938ZM202.705 1068.04V990.736H250.52V998.356H211.981V1025.3H247.207V1032.81H211.981V1060.42H250.52V1068.04H202.705ZM278.658 1068.04V990.736H291.909L328.682 1057.65H329.123V990.736H338.399V1068.04H325.148L288.376 1001.12H287.934V1068.04H278.658ZM386.861 1068.04V998.356H363.782V990.736H419.216V998.356H396.137V1068.04H386.861ZM431.432 1068.04L457.824 990.736H472.179L498.13 1068.04H488.302L465.222 997.583H464.781L441.149 1068.04H431.432ZM444.462 1043.85L447.112 1036.34H482.118L484.768 1043.85H444.462ZM521.4 1068.04V990.736H530.675V1060.64H566.675V1068.04H521.4ZM684.492 1068.04V990.736H693.768V1068.04H684.492ZM635.131 1068.04V990.736H644.407V1068.04H635.131ZM642.64 1032.48V1024.86H686.811V1032.48H642.64ZM723.594 1068.04V990.736H771.409V998.356H732.87V1025.3H768.096V1032.81H732.87V1060.42H771.409V1068.04H723.594ZM795.13 1068.04L821.522 990.736H835.877L861.828 1068.04H852L828.921 997.583H828.479L804.847 1068.04H795.13ZM808.16 1043.85L810.81 1036.34H845.816L848.466 1043.85H808.16ZM885.098 1068.04V990.736H894.374V1060.64H930.373V1068.04H885.098ZM963.214 1068.04V998.356H940.135V990.736H995.569V998.356H972.49V1068.04H963.214ZM1070.3 1068.04V990.736H1079.57V1068.04H1070.3ZM1020.94 1068.04V990.736H1030.21V1068.04H1020.94ZM1028.45 1032.48V1024.86H1072.62V1032.48H1028.45ZM1151.38 1068.04V990.736H1176.78C1182.82 990.736 1187.79 991.73 1191.69 993.718C1195.59 995.705 1198.46 998.392 1200.3 1001.78C1202.22 1005.17 1203.17 1008.99 1203.17 1013.26C1203.17 1017.46 1202.25 1021.25 1200.41 1024.64C1198.57 1028.02 1195.7 1030.75 1191.8 1032.81C1187.9 1034.8 1182.89 1035.79 1176.78 1035.79H1160.66V1068.04H1151.38ZM1160.66 1027.95H1176.56C1182.67 1027.95 1187.05 1026.62 1189.7 1023.97C1192.35 1021.32 1193.68 1017.75 1193.68 1013.26C1193.68 1008.55 1192.35 1004.91 1189.7 1002.33C1187.05 999.754 1182.67 998.466 1176.56 998.466H1160.66V1027.95ZM1230.25 1068.04V990.736H1255.2C1261.24 990.736 1266.17 991.767 1270 993.828C1273.83 995.816 1276.66 998.503 1278.5 1001.89C1280.34 1005.28 1281.27 1009.1 1281.27 1013.37C1281.27 1017.5 1280.31 1021.29 1278.39 1024.75C1276.55 1028.21 1273.68 1030.97 1269.78 1033.03C1265.88 1035.09 1260.87 1036.12 1254.76 1036.12H1239.52V1068.04H1230.25ZM1271.11 1068.04L1254.1 1033.47H1264.48L1282.04 1068.04H1271.11ZM1239.52 1028.83H1254.54C1260.43 1028.83 1264.74 1027.4 1267.46 1024.53C1270.26 1021.66 1271.66 1017.97 1271.66 1013.48C1271.66 1008.92 1270.3 1005.31 1267.57 1002.66C1264.92 999.938 1260.54 998.576 1254.43 998.576H1239.52V1028.83ZM1304.16 1068.04L1330.55 990.736H1344.9L1370.85 1068.04H1361.03L1337.95 997.583H1337.51L1313.87 1068.04H1304.16ZM1317.19 1043.85L1319.84 1036.34H1354.84L1357.49 1043.85H1317.19ZM1427.64 1069.36C1420.06 1069.36 1413.5 1067.7 1407.98 1064.39C1402.46 1061 1398.19 1056.33 1395.17 1050.37C1392.23 1044.33 1390.76 1037.34 1390.76 1029.39C1390.76 1021.43 1392.23 1014.48 1395.17 1008.51C1398.19 1002.48 1402.46 997.803 1407.98 994.491C1413.5 991.104 1420.06 989.411 1427.64 989.411C1436.55 989.411 1443.76 991.509 1449.28 995.705C1454.8 999.902 1458.34 1005.83 1459.88 1013.48H1449.61C1448.44 1008.7 1446.04 1004.87 1442.44 1002C1438.83 999.129 1433.9 997.693 1427.64 997.693C1422.12 997.693 1417.29 998.981 1413.17 1001.56C1409.05 1004.06 1405.85 1007.71 1403.57 1012.49C1401.36 1017.2 1400.25 1022.83 1400.25 1029.39C1400.25 1035.94 1401.36 1041.61 1403.57 1046.39C1405.85 1051.1 1409.05 1054.75 1413.17 1057.32C1417.29 1059.83 1422.12 1061.08 1427.64 1061.08C1433.9 1061.08 1438.86 1059.68 1442.55 1056.88C1446.3 1054.01 1448.77 1050.26 1449.94 1045.62H1459.88C1458.34 1053.05 1454.8 1058.87 1449.28 1063.07C1443.76 1067.26 1436.55 1069.36 1427.64 1069.36ZM1505.45 1068.04V998.356H1482.38V990.736H1537.81V998.356H1514.73V1068.04H1505.45ZM1563.18 1068.04V990.736H1572.45V1068.04H1563.18ZM1620.91 1068.04V998.356H1597.83V990.736H1653.27V998.356H1630.19V1068.04H1620.91ZM1678.63 1068.04V990.736H1687.91V1068.04H1678.63ZM1754.7 1069.36C1747.12 1069.36 1740.45 1067.7 1734.71 1064.39C1729.04 1061 1724.59 1056.33 1721.35 1050.37C1718.19 1044.33 1716.6 1037.34 1716.6 1029.39C1716.6 1021.51 1718.19 1014.59 1721.35 1008.63C1724.59 1002.59 1729.04 997.877 1734.71 994.491C1740.45 991.104 1747.12 989.411 1754.7 989.411C1762.36 989.411 1769.02 991.104 1774.69 994.491C1780.43 997.877 1784.88 1002.59 1788.05 1008.63C1791.21 1014.59 1792.8 1021.51 1792.8 1029.39C1792.8 1037.34 1791.21 1044.33 1788.05 1050.37C1784.88 1056.33 1780.43 1061 1774.69 1064.39C1769.02 1067.7 1762.36 1069.36 1754.7 1069.36ZM1754.7 1061.19C1760.37 1061.19 1765.34 1059.94 1769.61 1057.43C1773.95 1054.86 1777.3 1051.21 1779.66 1046.5C1782.09 1041.72 1783.3 1036.01 1783.3 1029.39C1783.3 1022.76 1782.09 1017.09 1779.66 1012.38C1777.3 1007.59 1773.95 1003.95 1769.61 1001.45C1765.34 998.944 1760.37 997.693 1754.7 997.693C1749.03 997.693 1744.03 998.944 1739.68 1001.45C1735.41 1003.95 1732.06 1007.59 1729.63 1012.38C1727.28 1017.09 1726.1 1022.76 1726.1 1029.39C1726.1 1036.01 1727.28 1041.72 1729.63 1046.5C1732.06 1051.21 1735.41 1054.86 1739.68 1057.43C1744.03 1059.94 1749.03 1061.19 1754.7 1061.19ZM1821.48 1068.04V990.736H1834.73L1871.51 1057.65H1871.95V990.736H1881.22V1068.04H1867.97L1831.2 1001.12H1830.76V1068.04H1821.48ZM1911.02 1068.04V990.736H1958.84V998.356H1920.3V1025.3H1955.53V1032.81H1920.3V1060.42H1958.84V1068.04H1911.02ZM1986.98 1068.04V990.736H2011.93C2017.97 990.736 2022.9 991.767 2026.73 993.828C2030.56 995.816 2033.39 998.503 2035.23 1001.89C2037.07 1005.28 2037.99 1009.1 2037.99 1013.37C2037.99 1017.5 2037.04 1021.29 2035.12 1024.75C2033.28 1028.21 2030.41 1030.97 2026.51 1033.03C2022.61 1035.09 2017.6 1036.12 2011.49 1036.12H1996.25V1068.04H1986.98ZM2027.83 1068.04L2010.83 1033.47H2021.21L2038.77 1068.04H2027.83ZM1996.25 1028.83H2011.27C2017.16 1028.83 2021.47 1027.4 2024.19 1024.53C2026.99 1021.66 2028.39 1017.97 2028.39 1013.48C2028.39 1008.92 2027.02 1005.31 2024.3 1002.66C2021.65 999.938 2017.27 998.576 2011.16 998.576H1996.25V1028.83Z" fill="#685E0E"/>
</svg>
