<svg width="625" height="296" viewBox="0 0 625 296" fill="none" xmlns="http://www.w3.org/2000/svg">
<path d="M0 177.072V175.257C4.35628 175.257 7.86551 173.926 10.5277 171.264C13.1899 168.602 14.5209 165.092 14.5209 160.736V57.2745C14.5209 52.9182 13.1899 49.4089 10.5277 46.7468C7.86551 44.0846 4.35628 42.7535 0 42.7535V40.9384H60.625C69.9426 41.0594 78.0501 42.693 84.9475 45.8392C91.966 48.8644 97.4114 53.0997 101.284 58.545C105.277 63.9904 107.273 70.4038 107.273 77.7853C107.273 85.1668 105.277 91.6407 101.284 97.2071C97.4114 102.652 91.845 106.948 84.5845 110.094C77.445 113.12 68.9745 114.632 59.1729 114.632H42.4738V160.736C42.4738 165.092 43.8049 168.602 46.467 171.264C49.1292 173.926 52.6384 175.257 56.9947 175.257H57.3577V177.072H0ZM42.4738 112.273H53.183C58.3863 112.273 62.8636 110.82 66.6148 107.916C70.4871 104.891 73.4518 100.777 75.5089 95.5735C77.6871 90.3701 78.7761 84.4407 78.7761 77.7853C78.7761 71.1299 77.6871 65.2005 75.5089 59.9971C73.4518 54.7938 70.4871 50.74 66.6148 47.8358C62.7426 44.8106 58.2048 43.298 53.0015 43.298H42.4738V112.273ZM111.702 177.072V175.257H111.884C116.24 175.257 119.749 173.926 122.411 171.264C125.073 168.602 126.405 165.092 126.405 160.736V101.2C126.405 96.602 125.436 93.0323 123.5 90.4911C121.685 87.95 117.752 86.6794 111.702 86.6794V84.8643H130.216C136.388 84.8643 141.107 84.1987 144.374 82.8676C147.399 81.5365 149.517 79.9029 150.727 77.9668H152.542V160.736C152.542 165.092 153.873 168.602 156.536 171.264C159.198 173.926 162.707 175.257 167.063 175.257H167.245V177.072H111.702ZM139.292 66.5316C134.936 66.5316 131.305 65.14 128.401 62.3568C125.618 59.4526 124.226 55.8224 124.226 51.4661C124.226 47.1098 125.618 43.5401 128.401 40.7569C131.305 37.8527 134.936 36.4006 139.292 36.4006C143.527 36.4006 147.036 37.8527 149.82 40.7569C152.724 43.6611 154.176 47.2308 154.176 51.4661C154.176 55.7014 152.724 59.2711 149.82 62.1753C147.036 65.0795 143.527 66.5316 139.292 66.5316ZM209.941 179.613C201.713 179.613 194.392 177.617 187.978 173.624C181.565 169.509 176.543 163.822 172.913 156.561C169.403 149.301 167.649 141.012 167.649 131.694C167.649 122.014 169.645 113.483 173.639 106.101C177.632 98.5986 183.077 92.7903 189.975 88.676C196.993 84.4407 204.859 82.3231 213.571 82.3231C223.736 82.3231 232.146 85.1063 238.801 90.6726C245.578 96.118 249.632 103.56 250.963 112.999L229.181 125.16C229.181 112.817 227.608 103.015 224.462 95.755C221.316 88.6155 216.899 85.0458 211.212 85.0458C207.339 85.0458 203.951 86.6189 201.047 89.7651C198.264 92.9113 196.086 97.1466 194.513 102.471C193.061 107.795 192.334 113.725 192.334 120.259C192.334 128.609 193.605 135.99 196.146 142.404C198.687 148.696 202.257 153.657 206.855 157.287C211.454 160.797 216.899 162.551 223.191 162.551C229 162.551 234.506 161.099 239.709 158.195C245.033 155.291 249.39 151.358 252.778 146.397L254.593 146.941C252.536 153.476 249.269 159.224 244.791 164.185C240.314 169.025 235.05 172.837 229 175.62C223.07 178.282 216.718 179.613 209.941 179.613ZM302.647 179.613C294.418 179.613 287.097 177.617 280.684 173.624C274.271 169.509 269.249 163.822 265.618 156.561C262.109 149.301 260.355 141.012 260.355 131.694C260.355 122.014 262.351 113.483 266.344 106.101C270.338 98.5986 275.783 92.7903 282.681 88.676C289.699 84.4407 297.565 82.3231 306.277 82.3231C316.442 82.3231 324.852 85.1063 331.507 90.6726C338.284 96.118 342.337 103.56 343.669 112.999L321.887 125.16C321.887 112.817 320.314 103.015 317.168 95.755C314.022 88.6155 309.605 85.0458 303.917 85.0458C300.045 85.0458 296.657 86.6189 293.753 89.7651C290.97 92.9113 288.791 97.1466 287.218 102.471C285.766 107.795 285.04 113.725 285.04 120.259C285.04 128.609 286.311 135.99 288.852 142.404C291.393 148.696 294.963 153.657 299.561 157.287C304.159 160.797 309.605 162.551 315.897 162.551C321.706 162.551 327.211 161.099 332.415 158.195C337.739 155.291 342.095 151.358 345.484 146.397L347.299 146.941C345.242 153.476 341.974 159.224 337.497 164.185C333.02 169.025 327.756 172.837 321.706 175.62C315.776 178.282 309.423 179.613 302.647 179.613ZM348.341 177.072V175.257H348.523C352.879 175.257 356.388 173.926 359.05 171.264C361.712 168.602 363.044 165.092 363.044 160.736V101.2C363.044 96.602 362.075 93.0323 360.139 90.4911C358.324 87.95 354.391 86.6794 348.341 86.6794V84.8643H366.855C373.027 84.8643 377.746 84.1987 381.013 82.8676C384.038 81.5365 386.156 79.9029 387.366 77.9668H389.181V160.736C389.181 165.092 390.512 168.602 393.174 171.264C395.837 173.926 399.346 175.257 403.702 175.257H403.884V177.072H348.341ZM375.931 66.5316C371.575 66.5316 367.944 65.14 365.04 62.3568C362.257 59.4526 360.865 55.8224 360.865 51.4661C360.865 47.1098 362.257 43.5401 365.04 40.7569C367.944 37.8527 371.575 36.4006 375.931 36.4006C380.166 36.4006 383.675 37.8527 386.459 40.7569C389.363 43.6611 390.815 47.2308 390.815 51.4661C390.815 55.7014 389.363 59.2711 386.459 62.1753C383.675 65.0795 380.166 66.5316 375.931 66.5316ZM454.908 179.613C444.986 179.613 436.273 177.617 428.771 173.624C421.389 169.63 415.641 164.003 411.527 156.743C407.413 149.482 405.356 140.891 405.356 130.968C405.356 121.046 407.413 112.454 411.527 105.194C415.641 97.9331 421.389 92.3062 428.771 88.313C436.273 84.3197 444.986 82.3231 454.908 82.3231C464.831 82.3231 473.483 84.3197 480.865 88.313C488.246 92.3062 493.994 97.9331 498.108 105.194C502.222 112.454 504.28 121.046 504.28 130.968C504.28 140.891 502.222 149.482 498.108 156.743C493.994 164.003 488.246 169.63 480.865 173.624C473.483 177.617 464.831 179.613 454.908 179.613ZM454.727 177.254C458.962 177.254 462.592 175.136 465.618 170.901C468.643 166.666 471.002 161.039 472.696 154.02C474.391 146.881 475.238 139.136 475.238 130.787C475.238 121.711 474.33 113.725 472.515 106.827C470.821 99.8087 468.401 94.3634 465.255 90.4911C462.229 86.4979 458.781 84.5012 454.908 84.5012C450.794 84.5012 447.164 86.6189 444.018 90.8541C440.992 95.0894 438.633 100.716 436.939 107.735C435.245 114.753 434.397 122.437 434.397 130.787C434.397 139.983 435.305 148.091 437.12 155.109C438.935 162.128 441.355 167.573 444.381 171.445C447.527 175.318 450.976 177.254 454.727 177.254ZM586.35 179.613C583.204 179.613 580.844 179.492 579.271 179.25C577.698 179.008 576.185 178.706 574.733 178.343C573.402 177.98 571.587 177.677 569.288 177.435C566.989 177.193 563.479 177.072 558.76 177.072L554.404 142.948H556.763C558.7 154.323 562.33 162.914 567.654 168.723C572.978 174.41 578.787 177.254 585.079 177.254C591.251 177.254 595.909 175.983 599.056 173.442C602.323 170.901 603.956 167.452 603.956 163.096C603.956 160.313 603.23 157.893 601.778 155.835C600.447 153.657 598.088 151.479 594.699 149.301C591.311 147.002 586.713 144.279 580.904 141.133L575.641 138.229C568.985 134.477 564.024 130.121 560.757 125.16C557.61 120.078 556.037 114.632 556.037 108.824C556.037 100.595 559.002 94.1214 564.931 89.4021C570.982 84.6827 579.029 82.3231 589.073 82.3231C591.614 82.3231 593.671 82.4441 595.244 82.6861C596.817 82.9281 598.33 83.2306 599.782 83.5937C601.234 83.9567 603.049 84.2592 605.227 84.5012C607.405 84.7432 610.309 84.8643 613.94 84.8643L616.481 114.088H614.303C613.577 108.4 611.943 103.378 609.402 99.0222C606.982 94.5449 604.077 91.0962 600.689 88.676C597.301 86.1348 593.852 84.8643 590.343 84.8643C585.745 84.8643 582.054 86.0743 579.271 88.4945C576.609 90.9146 575.278 94.3029 575.278 98.6592C575.278 101.926 576.306 104.952 578.363 107.735C580.541 110.397 584.656 113.301 590.706 116.447L596.151 119.17C604.622 123.526 610.793 128.064 614.666 132.783C618.538 137.503 620.474 143.553 620.474 150.935C620.474 169.812 609.099 179.371 586.35 179.613Z" fill="black"/>
<path d="M193.053 279.709V278.994C194.77 278.994 196.153 278.469 197.202 277.42C198.251 276.371 198.775 274.988 198.775 273.272V232.501C198.775 230.785 198.251 229.402 197.202 228.353C196.153 227.304 194.77 226.779 193.053 226.779V226.064H216.943C220.615 226.112 223.81 226.755 226.528 227.995C229.293 229.187 231.439 230.856 232.965 233.002C234.539 235.148 235.325 237.675 235.325 240.584C235.325 243.493 234.539 246.044 232.965 248.237C231.439 250.383 229.246 252.076 226.385 253.316C223.571 254.508 220.233 255.104 216.371 255.104H209.79V273.272C209.79 274.988 210.315 276.371 211.364 277.42C212.413 278.469 213.796 278.994 215.513 278.994H215.656V279.709H193.053ZM209.79 254.174H214.01C216.061 254.174 217.825 253.602 219.303 252.457C220.829 251.265 221.998 249.644 222.808 247.594C223.667 245.543 224.096 243.207 224.096 240.584C224.096 237.961 223.667 235.625 222.808 233.574C221.998 231.524 220.829 229.926 219.303 228.782C217.778 227.59 215.989 226.994 213.939 226.994H209.79V254.174ZM245.654 279.709V278.994H245.725C247.442 278.994 248.825 278.469 249.874 277.42C250.923 276.371 251.447 274.988 251.447 273.272V249.811C251.447 247.999 251.066 246.592 250.303 245.591C249.588 244.589 248.038 244.089 245.654 244.089V243.373H252.949C255.381 243.373 257.241 243.111 258.529 242.587C259.721 242.062 260.555 241.418 261.032 240.655H261.747V273.272C261.747 274.988 262.272 276.371 263.321 277.42C264.37 278.469 265.753 278.994 267.469 278.994H267.541V279.709H245.654ZM256.526 236.149C254.809 236.149 253.379 235.601 252.234 234.504C251.137 233.36 250.589 231.929 250.589 230.213C250.589 228.496 251.137 227.089 252.234 225.992C253.379 224.848 254.809 224.276 256.526 224.276C258.195 224.276 259.578 224.848 260.674 225.992C261.819 227.137 262.391 228.544 262.391 230.213C262.391 231.881 261.819 233.288 260.674 234.433C259.578 235.577 258.195 236.149 256.526 236.149ZM276.83 279.709V278.994L294.283 244.232H289.276C286.558 244.232 284.341 245.09 282.624 246.807C280.955 248.476 279.835 251.17 279.262 254.889H278.404L279.906 243.373H305.083V244.089L287.488 278.779H295.07C297.978 278.779 300.291 277.825 302.008 275.918C303.772 274.011 304.988 270.911 305.656 266.62H306.514L304.726 279.709H276.83ZM316.567 279.709V278.994L334.019 244.232H329.012C326.294 244.232 324.077 245.09 322.36 246.807C320.692 248.476 319.571 251.17 318.999 254.889H318.14L319.642 243.373H344.82V244.089L327.224 278.779H334.806C337.715 278.779 340.028 277.825 341.744 275.918C343.509 274.011 344.724 270.911 345.392 266.62H346.25L344.462 279.709H316.567ZM367.085 280.71C364.177 280.71 361.84 279.924 360.076 278.35C358.311 276.776 357.429 274.702 357.429 272.127C357.429 271.03 357.62 270.005 358.001 269.052C358.383 268.05 359.098 267.073 360.147 266.119C361.244 265.165 362.746 264.188 364.653 263.186C366.561 262.137 369.088 261.041 372.235 259.896L378.887 257.464V252.1C378.887 249.382 378.458 247.236 377.6 245.662C376.741 244.041 375.549 243.23 374.023 243.23C372.211 243.278 370.662 244.47 369.374 246.807C368.134 249.143 367.3 252.386 366.871 256.534L359.146 252.1C359.957 250.145 361.196 248.428 362.865 246.95C364.534 245.472 366.442 244.327 368.587 243.516C370.781 242.706 373.07 242.301 375.454 242.301C379.507 242.301 382.797 243.445 385.325 245.734C387.9 247.975 389.187 251.051 389.187 254.961V272.199C389.187 274.964 390.117 276.347 391.977 276.347C393.073 276.347 394.146 275.751 395.195 274.559L395.768 275.06C394.528 276.729 393.026 278.088 391.261 279.137C389.497 280.186 387.78 280.71 386.111 280.71C384.299 280.71 382.726 280.09 381.391 278.851C380.103 277.611 379.293 275.966 378.959 273.915C376.622 276.3 374.572 278.04 372.807 279.137C371.091 280.186 369.183 280.71 367.085 280.71ZM372.45 276.276C373.499 276.276 374.5 276.013 375.454 275.489C376.455 274.964 377.576 274.106 378.816 272.914L378.887 258.394L376.026 259.467C373.594 260.373 371.735 261.303 370.447 262.256C369.16 263.162 368.254 264.188 367.729 265.332C367.252 266.477 367.014 267.788 367.014 269.266C367.014 271.317 367.514 273.009 368.516 274.344C369.565 275.632 370.876 276.276 372.45 276.276ZM417.782 280.71C416.542 280.71 415.612 280.663 414.993 280.567C414.373 280.472 413.777 280.353 413.204 280.21C412.68 280.067 411.965 279.947 411.059 279.852C410.153 279.757 408.77 279.709 406.91 279.709L405.193 266.262H406.123C406.886 270.744 408.317 274.13 410.415 276.419C412.513 278.66 414.802 279.781 417.281 279.781C419.713 279.781 421.549 279.28 422.789 278.278C424.076 277.277 424.72 275.918 424.72 274.201C424.72 273.105 424.434 272.151 423.862 271.34C423.337 270.482 422.407 269.624 421.072 268.765C419.737 267.859 417.925 266.787 415.636 265.547L413.562 264.402C410.939 262.924 408.984 261.207 407.697 259.252C406.457 257.25 405.837 255.104 405.837 252.815C405.837 249.572 407.005 247.021 409.342 245.162C411.726 243.302 414.897 242.372 418.855 242.372C419.856 242.372 420.667 242.42 421.287 242.515C421.907 242.61 422.503 242.73 423.075 242.873C423.647 243.016 424.363 243.135 425.221 243.23C426.079 243.326 427.224 243.373 428.654 243.373L429.655 254.889H428.797C428.511 252.648 427.867 250.669 426.866 248.953C425.912 247.188 424.768 245.829 423.433 244.876C422.098 243.874 420.739 243.373 419.356 243.373C417.544 243.373 416.089 243.85 414.993 244.804C413.943 245.758 413.419 247.093 413.419 248.809C413.419 250.097 413.824 251.289 414.635 252.386C415.493 253.435 417.114 254.579 419.499 255.819L421.645 256.892C424.982 258.609 427.414 260.397 428.94 262.256C430.466 264.116 431.229 266.5 431.229 269.409C431.229 276.848 426.747 280.615 417.782 280.71Z" fill="black"/>
<path d="M535.76 0.626221L576.688 20.6932C577.394 21.0396 577.686 21.8929 577.34 22.5993L528.259 122.703C527.977 123.277 527.14 123.218 526.942 122.61L507.202 62.0396C506.398 59.5729 506.587 56.8899 507.73 54.5603L533.854 1.27812C534.201 0.571751 535.054 0.279888 535.76 0.626221Z" fill="black"/>
<circle cx="4.98557" cy="4.98557" r="4.98557" transform="matrix(-0.897882 -0.440236 -0.440236 0.897882 560.912 39.9277)" fill="#F5F0EC"/>
<circle cx="4.98557" cy="4.98557" r="4.98557" transform="matrix(-0.897882 -0.440236 -0.440236 0.897882 529.787 51.6367)" fill="#F5F0EC"/>
<circle cx="4.98557" cy="4.98557" r="4.98557" transform="matrix(-0.897882 -0.440236 -0.440236 0.897882 537.032 82.1602)" fill="#F5F0EC"/>
<circle cx="4.98557" cy="4.98557" r="4.98557" transform="matrix(-0.897882 -0.440236 -0.440236 0.897882 544.763 11.3867)" fill="#F5F0EC"/>
</svg>
